<svg width="283" height="132" viewBox="0 0 283 132" fill="none" xmlns="http://www.w3.org/2000/svg">
<rect x="1" y="1" width="281" height="130" rx="3" fill="#F5F7F8"/>
<g filter="url(#filter0_d_3726_32622)">
<g clip-path="url(#clip0_3726_32622)">
<rect x="62" y="19" width="159" height="94" rx="4" fill="#D9E0E3"/>
<rect x="66" y="23" width="151" height="11" rx="3" fill="#F7F9F9"/>
<rect x="68" y="25" width="7" height="7" rx="2" fill="#BBC7CD"/>
<rect x="78" y="27" width="24" height="3" rx="1.5" fill="#BBC7CD"/>
<rect x="68" y="39" width="7" height="7" rx="2" fill="#9CAEB7"/>
<rect x="78" y="41" width="24" height="3" rx="1.5" fill="#9CAEB7"/>
<rect x="211" y="41" width="3" height="3" rx="1.5" fill="#9CAEB7"/>
<rect x="206" y="41" width="3" height="3" rx="1.5" fill="#9CAEB7"/>
<rect x="66" y="49" width="151" height="11" rx="4" fill="#BBC7CD"/>
<rect x="68.0372" y="51" width="7" height="7" rx="2" fill="#607D8B"/>
<rect x="78.0372" y="53" width="24" height="3" rx="1.5" fill="#607D8B"/>
<rect x="211.037" y="53" width="3" height="3" rx="1.5" fill="#607D8B"/>
<rect x="206.037" y="53" width="3" height="3" rx="1.5" fill="#607D8B"/>
<rect x="68" y="63" width="7" height="7" rx="2" fill="#9CAEB7"/>
<rect x="78" y="65" width="24" height="3" rx="1.5" fill="#9CAEB7"/>
<rect x="211" y="65" width="3" height="3" rx="1.5" fill="#9CAEB7"/>
<rect x="206" y="65" width="3" height="3" rx="1.5" fill="#9CAEB7"/>
<rect x="68" y="75" width="7" height="7" rx="2" fill="#9CAEB7"/>
<rect x="78" y="77" width="24" height="3" rx="1.5" fill="#9CAEB7"/>
<rect x="211" y="77" width="3" height="3" rx="1.5" fill="#9CAEB7"/>
<rect x="206" y="77" width="3" height="3" rx="1.5" fill="#9CAEB7"/>
<rect x="68" y="87" width="7" height="7" rx="2" fill="#9CAEB7"/>
<rect x="78" y="89" width="24" height="3" rx="1.5" fill="#9CAEB7"/>
<rect x="211" y="89" width="3" height="3" rx="1.5" fill="#9CAEB7"/>
<rect x="206" y="89" width="3" height="3" rx="1.5" fill="#9CAEB7"/>
<rect x="68" y="99" width="7" height="7" rx="2" fill="#9CAEB7"/>
<rect x="78" y="101" width="24" height="3" rx="1.5" fill="#9CAEB7"/>
<rect x="211" y="101" width="3" height="3" rx="1.5" fill="#9CAEB7"/>
<rect x="206" y="101" width="3" height="3" rx="1.5" fill="#9CAEB7"/>
<rect x="68" y="111" width="7" height="7" rx="2" fill="#9CAEB7"/>
</g>
</g>
<rect x="1" y="1" width="281" height="130" rx="3" stroke="#BBC7CD" stroke-width="2"/>
<defs>
<filter id="filter0_d_3726_32622" x="59" y="18" width="165" height="100" filterUnits="userSpaceOnUse" color-interpolation-filters="sRGB">
<feFlood flood-opacity="0" result="BackgroundImageFix"/>
<feColorMatrix in="SourceAlpha" type="matrix" values="0 0 0 0 0 0 0 0 0 0 0 0 0 0 0 0 0 0 127 0" result="hardAlpha"/>
<feOffset dy="2"/>
<feGaussianBlur stdDeviation="1.5"/>
<feComposite in2="hardAlpha" operator="out"/>
<feColorMatrix type="matrix" values="0 0 0 0 0 0 0 0 0 0 0 0 0 0 0 0 0 0 0.15 0"/>
<feBlend mode="normal" in2="BackgroundImageFix" result="effect1_dropShadow_3726_32622"/>
<feBlend mode="normal" in="SourceGraphic" in2="effect1_dropShadow_3726_32622" result="shape"/>
</filter>
<clipPath id="clip0_3726_32622">
<rect x="62" y="19" width="159" height="94" rx="4" fill="white"/>
</clipPath>
</defs>
</svg>
