<svg width="212" height="92" viewBox="0 0 212 92" fill="none" xmlns="http://www.w3.org/2000/svg">
<path fill-rule="evenodd" clip-rule="evenodd" d="M48.1738 25.6836V35.126L40.3871 39.8312L32.5488 35.0938V25.6836L40.3871 21L48.1738 25.6836ZM40.3871 23.0349L34.199 26.7603V34.114L40.3871 37.7962L46.4825 34.1463V26.7603L40.3871 23.0349ZM39.4238 41.3003L31.6165 36.5844L23.7988 41.3003V50.7104L31.6165 55.4156L39.4238 50.7104V41.3003ZM37.7427 49.6984L31.6165 53.3806L25.4903 49.6984V42.3123L31.6165 38.6193L37.7427 42.3123V49.6984ZM56.2988 41.2895L48.7939 36.5844L41.2988 41.2895V50.6997L48.7939 55.4156L56.2988 50.6997V41.2895ZM58.1738 41.3003L65.9812 36.5844L73.7988 41.3003V50.7104L65.9812 55.4156L58.1738 50.7104V41.3003ZM65.9812 53.3806L72.1076 49.6984V42.3123L65.9812 38.6193L59.8549 42.3123V49.6984L65.9812 53.3806ZM32.5488 56.8847V66.2949L40.3768 71L48.1738 66.2949V56.8847L40.3768 52.1688L32.5488 56.8847ZM46.464 65.3151L40.3768 68.9651L34.1968 65.3151V57.8967L40.3768 54.2038L46.4846 57.8967L46.464 65.3151Z" fill="#A855F7"/>
<path d="M104.389 43.898C103.269 43.898 102.709 43.338 102.709 42.218V37.682C102.709 36.562 102.149 36.002 101.029 36.002H95.4008C94.2808 36.002 93.7208 36.562 93.7208 37.682V56.876C93.7208 57.996 94.2808 58.556 95.4008 58.556H101.029C102.149 58.556 102.709 57.996 102.709 56.876V52.76C102.709 51.64 103.269 51.08 104.389 51.08H104.851C105.971 51.08 106.531 51.64 106.531 52.76V58.094C106.531 58.906 106.251 59.592 105.691 60.152L104.305 61.538C103.745 62.098 103.059 62.378 102.247 62.378H94.1828C93.3708 62.378 92.6848 62.098 92.1248 61.538L90.7388 60.152C90.1788 59.592 89.8988 58.906 89.8988 58.094V36.464C89.8988 35.652 90.1788 34.966 90.7388 34.406L92.1248 33.02C92.6848 32.46 93.3708 32.18 94.1828 32.18H102.247C103.059 32.18 103.745 32.46 104.305 33.02L105.691 34.406C106.251 34.966 106.531 35.652 106.531 36.464V42.218C106.531 43.338 105.971 43.898 104.851 43.898H104.389ZM112.415 62.42C111.295 62.42 110.735 61.86 110.735 60.74V33.986C110.735 32.866 111.295 32.306 112.415 32.306H112.877C113.997 32.306 114.557 32.866 114.557 33.986V39.95C114.557 41.07 115.117 41.63 116.237 41.63H120.101C120.913 41.63 121.599 41.91 122.159 42.47L123.545 43.856C124.105 44.416 124.385 45.102 124.385 45.914V60.74C124.385 61.86 123.825 62.42 122.705 62.42H122.243C121.123 62.42 120.563 61.86 120.563 60.74V47.132C120.563 46.012 120.003 45.452 118.883 45.452H116.237C115.117 45.452 114.557 46.012 114.557 47.132V60.74C114.557 61.86 113.997 62.42 112.877 62.42H112.415ZM133.271 62.336C132.459 62.336 131.773 62.056 131.213 61.496L129.827 60.11C129.267 59.55 128.987 58.864 128.987 58.052V53.18C128.987 52.76 129.057 52.396 129.197 52.088C129.337 51.752 129.561 51.43 129.869 51.122L131.213 49.778C131.773 49.218 132.459 48.938 133.271 48.938H137.261C138.381 48.938 138.941 48.378 138.941 47.258V47.132C138.941 46.012 138.381 45.452 137.261 45.452H130.793C129.673 45.452 129.113 44.892 129.113 43.772V43.31C129.113 42.19 129.673 41.63 130.793 41.63H138.479C139.291 41.63 139.977 41.91 140.537 42.47L141.923 43.856C142.483 44.416 142.763 45.102 142.763 45.914V60.656C142.763 61.776 142.203 62.336 141.083 62.336H133.271ZM138.941 54.062C138.941 52.942 138.381 52.382 137.261 52.382H134.489C133.369 52.382 132.809 52.942 132.809 54.062V57.212C132.809 58.332 133.369 58.892 134.489 58.892H137.261C138.381 58.892 138.941 58.332 138.941 57.212V54.062ZM151.645 60.656C151.645 61.776 151.085 62.336 149.965 62.336H149.503C148.383 62.336 147.823 61.776 147.823 60.656V45.914C147.823 45.102 148.103 44.416 148.663 43.856L150.049 42.47C150.609 41.91 151.295 41.63 152.107 41.63H152.863C153.983 41.63 154.543 42.19 154.543 43.31V43.772C154.543 44.892 154.067 45.452 153.115 45.452C152.639 45.452 152.275 45.606 152.023 45.914C151.771 46.194 151.645 46.6 151.645 47.132V60.656ZM169.976 43.814C170.536 44.402 170.816 45.102 170.816 45.914V58.094C170.816 58.906 170.536 59.606 169.976 60.194L168.632 61.538C168.072 62.098 167.386 62.378 166.574 62.378H161.366C160.554 62.378 159.868 62.098 159.308 61.538L157.922 60.152C157.362 59.592 157.082 58.906 157.082 58.094V45.914C157.082 45.102 157.362 44.416 157.922 43.856L159.308 42.47C159.868 41.91 160.554 41.63 161.366 41.63H166.574C167.386 41.63 168.072 41.91 168.632 42.47L169.976 43.814ZM166.994 47.132C166.994 46.012 166.434 45.452 165.314 45.452H162.584C161.464 45.452 160.904 46.012 160.904 47.132V56.876C160.904 57.996 161.464 58.556 162.584 58.556H165.314C166.434 58.556 166.994 57.996 166.994 56.876V47.132ZM184.666 58.556C185.786 58.556 186.346 59.116 186.346 60.236V60.698C186.346 61.818 185.786 62.378 184.666 62.378H181.768C180.956 62.378 180.27 62.098 179.71 61.538L178.324 60.152C177.764 59.592 177.484 58.906 177.484 58.094V47.09C177.484 46.558 177.344 46.152 177.064 45.872C176.784 45.564 176.378 45.41 175.846 45.41C174.726 45.41 174.166 44.85 174.166 43.73V43.31C174.166 42.778 174.306 42.372 174.586 42.092C174.894 41.784 175.314 41.63 175.846 41.63C176.378 41.63 176.784 41.49 177.064 41.21C177.344 40.902 177.484 40.482 177.484 39.95V38.438C177.484 37.318 178.044 36.758 179.164 36.758H179.626C180.746 36.758 181.306 37.318 181.306 38.438V39.95C181.306 41.07 181.866 41.63 182.986 41.63H184.666C185.786 41.63 186.346 42.19 186.346 43.31V43.73C186.346 44.85 185.786 45.41 184.666 45.41H182.986C181.866 45.41 181.306 45.97 181.306 47.09V56.876C181.306 57.996 181.866 58.556 182.986 58.556H184.666Z" fill="#212121"/>
</svg>
