<svg width="212" height="92" viewBox="0 0 212 92" fill="none" xmlns="http://www.w3.org/2000/svg">
<path d="M66.5901 21C64.1218 21.0028 61.7551 21.9924 60.0097 23.7516C58.2643 25.5108 57.2823 27.8961 57.2796 30.384V36.6398H49.5211V30.384C49.5085 27.9036 48.5221 25.5291 46.7774 23.7796C45.0327 22.0302 42.6718 21.0481 40.2108 21.0481C37.7497 21.0481 35.3888 22.0302 33.6441 23.7796C31.8995 25.5291 30.913 27.9036 30.9004 30.384V61.6641C30.913 64.1445 31.8995 66.5189 33.6441 68.2684C35.3888 70.0178 37.7497 71 40.2108 71C42.6718 71 45.0327 70.0178 46.7774 68.2684C48.5221 66.5189 49.5085 64.1445 49.5211 61.6641V58.5361L46.4176 56.972V61.6641C46.4176 62.9015 46.0536 64.111 45.3715 65.1398C44.6895 66.1686 43.7201 66.9703 42.5859 67.4439C41.4517 67.9173 40.2037 68.0413 38.9996 67.7999C37.7956 67.5583 36.6896 66.9627 35.8216 66.0877C34.9535 65.2128 34.3623 64.0979 34.1229 62.8845C33.8834 61.6708 34.0064 60.4129 34.4762 59.2698C34.946 58.1268 35.7416 57.1495 36.7624 56.4622C37.7832 55.7748 38.9833 55.408 40.2109 55.408H66.5901C67.8178 55.408 69.0179 55.7748 70.0385 56.4624C71.0593 57.1498 71.8548 58.1268 72.3246 59.27C72.7944 60.4132 72.9175 61.671 72.6778 62.8845C72.4384 64.0982 71.8473 65.2128 70.9791 66.0877C70.1111 66.9627 69.0052 67.5586 67.801 67.7999C66.597 68.0413 65.349 67.9173 64.2147 67.4439C63.0807 66.9703 62.1112 66.1686 61.4291 65.1398C60.7473 64.111 60.3831 62.9015 60.3831 61.6641V58.5361L57.2796 56.972V61.6641C57.2924 64.1445 58.2787 66.5189 60.0234 68.2684C61.7681 70.0178 64.1291 71 66.5899 71C69.0509 71 71.4119 70.0178 73.1566 68.2684C74.9014 66.5189 75.8877 64.1445 75.9004 61.6641V30.384C75.8977 27.8961 74.9158 25.5109 73.1703 23.7517C71.4251 21.9925 69.0585 21.0029 66.5901 21ZM60.3831 30.384C60.3831 29.1467 60.7471 27.9371 61.4291 26.9083C62.1112 25.8795 63.0804 25.0776 64.2147 24.604C65.3487 24.1305 66.5967 24.0066 67.801 24.2479C69.005 24.4893 70.1109 25.0851 70.9791 25.96C71.8473 26.8349 72.4384 27.9496 72.6778 29.1632C72.9175 30.3768 72.7944 31.6346 72.3246 32.7778C71.8548 33.9209 71.0593 34.898 70.0387 35.5854C69.0179 36.2729 67.8178 36.6398 66.5901 36.6398H60.3831V30.384ZM40.2109 24.128C41.8565 24.13 43.4341 24.7897 44.5977 25.9625C45.7613 27.1353 46.4158 28.7254 46.4176 30.384V36.6398H40.2109C39.3925 36.645 38.5812 36.487 37.8236 36.1749C37.0661 35.8628 36.3772 35.4028 35.7967 34.8214C35.2162 34.24 34.7555 33.5486 34.4411 32.787C34.1268 32.0255 33.9649 31.2087 33.9649 30.3839C33.9649 29.559 34.1268 28.7423 34.4411 27.9808C34.7555 27.2192 35.2162 26.5278 35.7967 25.9464C36.3772 25.3649 37.0661 24.905 37.8236 24.5929C38.5812 24.2808 39.3925 24.1228 40.2109 24.128ZM66.5901 52.2794H40.2109C37.9193 52.2775 35.7082 53.1307 34.0039 54.6748V37.3724C35.7082 38.9163 37.9193 39.7696 40.2109 39.7675H66.5901C68.8817 39.7695 71.0928 38.9163 72.7969 37.3724V54.6748C71.0928 53.1307 68.8817 52.2775 66.5901 52.2794Z" fill="#14B8A6"/>
<path d="M92.0004 33.902C92.0004 32.782 92.5604 32.222 93.6804 32.222H106.91C108.03 32.222 108.59 32.782 108.59 33.902V34.364C108.59 35.484 108.03 36.044 106.91 36.044H97.5024C96.3824 36.044 95.8224 36.604 95.8224 37.724V44.864C95.8224 45.984 96.3824 46.544 97.5024 46.544H106.91C108.03 46.544 108.59 47.104 108.59 48.224V48.686C108.59 49.806 108.03 50.366 106.91 50.366H97.5024C96.3824 50.366 95.8224 50.926 95.8224 52.046V60.698C95.8224 61.818 95.2624 62.378 94.1424 62.378H93.6804C92.5604 62.378 92.0004 61.818 92.0004 60.698V33.902ZM116.627 60.656C116.627 61.776 116.067 62.336 114.947 62.336H114.485C113.365 62.336 112.805 61.776 112.805 60.656V45.914C112.805 45.102 113.085 44.416 113.645 43.856L115.031 42.47C115.591 41.91 116.277 41.63 117.089 41.63H117.845C118.965 41.63 119.525 42.19 119.525 43.31V43.772C119.525 44.892 119.049 45.452 118.097 45.452C117.621 45.452 117.257 45.606 117.005 45.914C116.753 46.194 116.627 46.6 116.627 47.132V60.656ZM126.349 62.336C125.537 62.336 124.851 62.056 124.291 61.496L122.905 60.11C122.345 59.55 122.065 58.864 122.065 58.052V53.18C122.065 52.76 122.135 52.396 122.275 52.088C122.415 51.752 122.639 51.43 122.947 51.122L124.291 49.778C124.851 49.218 125.537 48.938 126.349 48.938H130.339C131.459 48.938 132.019 48.378 132.019 47.258V47.132C132.019 46.012 131.459 45.452 130.339 45.452H123.871C122.751 45.452 122.191 44.892 122.191 43.772V43.31C122.191 42.19 122.751 41.63 123.871 41.63H131.557C132.369 41.63 133.055 41.91 133.615 42.47L135.001 43.856C135.561 44.416 135.841 45.102 135.841 45.914V60.656C135.841 61.776 135.281 62.336 134.161 62.336H126.349ZM132.019 54.062C132.019 52.942 131.459 52.382 130.339 52.382H127.567C126.447 52.382 125.887 52.942 125.887 54.062V57.212C125.887 58.332 126.447 58.892 127.567 58.892H130.339C131.459 58.892 132.019 58.332 132.019 57.212V54.062ZM144.723 60.74C144.723 61.86 144.163 62.42 143.043 62.42H142.581C141.461 62.42 140.901 61.86 140.901 60.74V45.914C140.901 45.102 141.181 44.416 141.741 43.856L143.127 42.47C143.687 41.91 144.373 41.63 145.185 41.63H150.393C151.205 41.63 151.891 41.924 152.451 42.512L153.795 43.856C154.355 44.416 154.635 45.102 154.635 45.914V60.74C154.635 61.86 154.075 62.42 152.955 62.42H152.535C151.415 62.42 150.855 61.86 150.855 60.74V47.132C150.855 46.012 150.295 45.452 149.175 45.452H146.403C145.283 45.452 144.723 46.012 144.723 47.132V60.74ZM165.104 56.582C164.768 55.966 164.39 55.658 163.97 55.658C163.718 55.658 163.508 55.784 163.34 56.036C163.172 56.288 163.088 56.652 163.088 57.128V60.698C163.088 61.818 162.528 62.378 161.408 62.378H160.946C159.826 62.378 159.266 61.818 159.266 60.698V33.482C159.266 32.362 159.826 31.802 160.946 31.802H161.408C162.528 31.802 163.088 32.362 163.088 33.482V45.326C163.088 45.774 163.158 46.124 163.298 46.376C163.466 46.628 163.676 46.754 163.928 46.754C164.32 46.754 164.726 46.488 165.146 45.956L167.666 42.722C168.226 41.994 168.898 41.63 169.682 41.63H170.312C170.76 41.63 171.11 41.728 171.362 41.924C171.614 42.12 171.74 42.372 171.74 42.68C171.74 42.96 171.628 43.282 171.404 43.646L167.33 49.694C167.078 50.058 166.952 50.45 166.952 50.87C166.952 51.262 167.05 51.64 167.246 52.004L171.74 60.362C171.908 60.698 171.992 61.006 171.992 61.286C171.992 61.622 171.866 61.888 171.614 62.084C171.362 62.28 171.026 62.378 170.606 62.378H169.724C168.8 62.378 168.128 61.986 167.708 61.202L165.104 56.582ZM175.574 36.086C175.994 35.666 176.428 35.456 176.876 35.456C177.324 35.456 177.758 35.666 178.178 36.086C178.598 36.506 178.808 36.94 178.808 37.388C178.808 37.836 178.598 38.27 178.178 38.69C177.758 39.11 177.324 39.32 176.876 39.32C176.428 39.32 175.994 39.11 175.574 38.69C175.154 38.27 174.944 37.836 174.944 37.388C174.944 36.94 175.154 36.506 175.574 36.086ZM174.986 43.31C174.986 42.19 175.546 41.63 176.666 41.63H177.086C178.206 41.63 178.766 42.19 178.766 43.31V60.698C178.766 61.818 178.206 62.378 177.086 62.378H176.666C175.546 62.378 174.986 61.818 174.986 60.698V43.31Z" fill="#212121"/>
</svg>
