<svg width="212" height="92" viewBox="0 0 212 92" fill="none" xmlns="http://www.w3.org/2000/svg">
<path fill-rule="evenodd" clip-rule="evenodd" d="M70.6751 28.7506L80.1509 44.1389H61.1992L70.6751 28.7506ZM70.6751 26L58.6504 45.4853H82.6997L70.6751 26ZM54.1997 47.89L44.7238 63.2782L35.248 47.89H54.1997ZM56.7383 46.5146H32.6992L44.7238 66L56.7383 46.5146ZM55.2986 44.6487L44.7231 27.5101L34.127 44.6487H55.2986ZM58.023 48.39L68.6089 66H46.9336L57.6941 48.39H58.023ZM70.6742 64.663L60.3145 47.3224H81.1777L70.6742 64.663Z" fill="#F97316"/>
<path d="M111.609 33.818C111.609 32.698 112.169 32.138 113.289 32.138H113.751C114.871 32.138 115.431 32.698 115.431 33.818V60.698C115.431 61.818 114.871 62.378 113.751 62.378H113.289C112.169 62.378 111.609 61.818 111.609 60.698V49.736C111.609 48.616 111.049 48.056 109.929 48.056H104.301C103.181 48.056 102.621 48.616 102.621 49.736V60.698C102.621 61.818 102.061 62.378 100.941 62.378H100.479C99.3592 62.378 98.7992 61.818 98.7992 60.698V33.818C98.7992 32.698 99.3592 32.138 100.479 32.138H100.941C102.061 32.138 102.621 32.698 102.621 33.818V42.554C102.621 43.674 103.181 44.234 104.301 44.234H109.929C111.049 44.234 111.609 43.674 111.609 42.554V33.818ZM132.529 43.814C133.089 44.402 133.369 45.102 133.369 45.914V58.094C133.369 58.906 133.089 59.606 132.529 60.194L131.185 61.538C130.625 62.098 129.939 62.378 129.127 62.378H123.919C123.107 62.378 122.421 62.098 121.861 61.538L120.475 60.152C119.915 59.592 119.635 58.906 119.635 58.094V45.914C119.635 45.102 119.915 44.416 120.475 43.856L121.861 42.47C122.421 41.91 123.107 41.63 123.919 41.63H129.127C129.939 41.63 130.625 41.91 131.185 42.47L132.529 43.814ZM129.547 47.132C129.547 46.012 128.987 45.452 127.867 45.452H125.137C124.017 45.452 123.457 46.012 123.457 47.132V56.876C123.457 57.996 124.017 58.556 125.137 58.556H127.867C128.987 58.556 129.547 57.996 129.547 56.876V47.132ZM139.743 42.47C140.303 41.91 141.003 41.63 141.843 41.63H145.707C146.827 41.63 147.387 41.07 147.387 39.95V33.902C147.387 32.782 147.947 32.222 149.067 32.222H149.529C150.649 32.222 151.209 32.782 151.209 33.902V60.698C151.209 61.818 150.649 62.378 149.529 62.378H141.843C141.031 62.378 140.345 62.098 139.785 61.538L138.399 60.152C137.839 59.592 137.559 58.906 137.559 58.094V45.872C137.559 45.06 137.839 44.374 138.399 43.814L139.743 42.47ZM141.381 56.876C141.381 57.996 141.941 58.556 143.061 58.556H145.707C146.827 58.556 147.387 57.996 147.387 56.876V47.132C147.387 46.012 146.827 45.452 145.707 45.452H143.061C141.941 45.452 141.381 46.012 141.381 47.132V56.876ZM155.401 33.86C155.401 32.74 155.961 32.18 157.081 32.18H157.501C158.621 32.18 159.181 32.74 159.181 33.86V60.698C159.181 61.818 158.621 62.378 157.501 62.378H157.081C155.961 62.378 155.401 61.818 155.401 60.698V33.86ZM171.169 51.836C172.289 51.836 172.849 51.276 172.849 50.156V43.31C172.849 42.19 173.409 41.63 174.529 41.63H174.991C176.111 41.63 176.671 42.19 176.671 43.31V61.874C176.671 62.686 176.391 63.372 175.831 63.932L174.445 65.318C173.885 65.878 173.199 66.158 172.387 66.158H165.037C163.917 66.158 163.357 65.598 163.357 64.478V64.016C163.357 62.896 163.917 62.336 165.037 62.336H171.169C172.289 62.336 172.849 61.776 172.849 60.656V57.338C172.849 56.218 172.289 55.658 171.169 55.658H167.263C166.451 55.658 165.765 55.378 165.205 54.818L163.819 53.432C163.259 52.872 162.979 52.186 162.979 51.374V43.31C162.979 42.19 163.539 41.63 164.659 41.63H165.121C166.241 41.63 166.801 42.19 166.801 43.31V50.156C166.801 51.276 167.361 51.836 168.481 51.836H171.169Z" fill="#212121"/>
</svg>
