<svg width="212" height="92" viewBox="0 0 212 92" fill="none" xmlns="http://www.w3.org/2000/svg">
<path fill-rule="evenodd" clip-rule="evenodd" d="M65.6548 30.6596L56.4913 25.8617L38.0472 35.5106L33.4245 33.0851L56.4913 21L70.301 28.234L65.6548 30.6596ZM56.4931 40.3085L74.9255 30.6595L79.5717 33.0851L56.4931 45.1595L42.6952 37.9361L47.3297 35.5106L56.4931 40.3085ZM37.1345 46.8937L32.5 44.4681V58.9149L55.5669 71V66.1489L37.1345 56.4894V46.8937ZM50.9324 49.2658L32.5 39.6169V34.7658L55.5669 46.8403V61.2977L50.9324 58.8615V49.2658ZM71.2301 44.468V39.6169L57.4205 46.8403V70.9999L62.055 68.5743V49.2659L71.2301 44.468ZM75.8546 56.4892V37.1914L80.5008 34.7659V58.9148L66.6912 66.1488V61.2977L75.8546 56.4892Z" fill="#06B6D4"/>
<path d="M109.41 33.818C109.41 32.698 109.97 32.138 111.09 32.138H111.552C112.672 32.138 113.232 32.698 113.232 33.818V60.698C113.232 61.818 112.672 62.378 111.552 62.378H111.09C109.97 62.378 109.41 61.818 109.41 60.698V49.736C109.41 48.616 108.85 48.056 107.73 48.056H102.102C100.982 48.056 100.422 48.616 100.422 49.736V60.698C100.422 61.818 99.862 62.378 98.742 62.378H98.28C97.16 62.378 96.6 61.818 96.6 60.698V33.818C96.6 32.698 97.16 32.138 98.28 32.138H98.742C99.862 32.138 100.422 32.698 100.422 33.818V42.554C100.422 43.674 100.982 44.234 102.102 44.234H107.73C108.85 44.234 109.41 43.674 109.41 42.554V33.818ZM125.206 51.836C126.326 51.836 126.886 51.276 126.886 50.156V43.31C126.886 42.19 127.446 41.63 128.566 41.63H129.028C130.148 41.63 130.708 42.19 130.708 43.31V61.874C130.708 62.686 130.428 63.372 129.868 63.932L128.482 65.318C127.922 65.878 127.236 66.158 126.424 66.158H119.074C117.954 66.158 117.394 65.598 117.394 64.478V64.016C117.394 62.896 117.954 62.336 119.074 62.336H125.206C126.326 62.336 126.886 61.776 126.886 60.656V57.338C126.886 56.218 126.326 55.658 125.206 55.658H121.3C120.488 55.658 119.802 55.378 119.242 54.818L117.856 53.432C117.296 52.872 117.016 52.186 117.016 51.374V43.31C117.016 42.19 117.576 41.63 118.696 41.63H119.158C120.278 41.63 120.838 42.19 120.838 43.31V50.156C120.838 51.276 121.398 51.836 122.518 51.836H125.206ZM137.009 66.284C135.889 66.284 135.329 65.724 135.329 64.604V43.31C135.329 42.19 135.889 41.63 137.009 41.63H144.737C145.549 41.63 146.235 41.91 146.795 42.47L148.139 43.814C148.699 44.374 148.979 45.06 148.979 45.872V53.726C148.979 54.538 148.699 55.238 148.139 55.826L146.795 57.17C146.235 57.73 145.549 58.01 144.737 58.01H140.831C139.711 58.01 139.151 58.57 139.151 59.69V64.604C139.151 65.724 138.591 66.284 137.471 66.284H137.009ZM140.831 45.41C139.711 45.41 139.151 45.97 139.151 47.09V52.508C139.151 53.628 139.711 54.188 140.831 54.188H143.519C144.639 54.188 145.199 53.628 145.199 52.508V47.09C145.199 45.97 144.639 45.41 143.519 45.41H140.831ZM166.811 52.886C166.811 54.006 166.251 54.566 165.131 54.566H158.663C157.543 54.566 156.983 55.126 156.983 56.246V56.834C156.983 57.954 157.543 58.514 158.663 58.514H165.131C166.251 58.514 166.811 59.074 166.811 60.194V60.656C166.811 61.776 166.251 62.336 165.131 62.336H157.403C156.591 62.336 155.905 62.042 155.345 61.454L154.001 60.11C153.441 59.55 153.161 58.864 153.161 58.052V45.872C153.161 45.06 153.441 44.374 154.001 43.814L155.345 42.47C155.905 41.91 156.591 41.63 157.403 41.63H162.569C163.381 41.63 164.067 41.91 164.627 42.47L165.971 43.814C166.531 44.374 166.811 45.06 166.811 45.872V52.886ZM156.983 49.526C156.983 50.646 157.543 51.206 158.663 51.206H161.309C162.429 51.206 162.989 50.646 162.989 49.526V47.09C162.989 45.97 162.429 45.41 161.309 45.41H158.663C157.543 45.41 156.983 45.97 156.983 47.09V49.526ZM175.244 60.656C175.244 61.776 174.684 62.336 173.564 62.336H173.102C171.982 62.336 171.422 61.776 171.422 60.656V45.914C171.422 45.102 171.702 44.416 172.262 43.856L173.648 42.47C174.208 41.91 174.894 41.63 175.706 41.63H176.462C177.582 41.63 178.142 42.19 178.142 43.31V43.772C178.142 44.892 177.666 45.452 176.714 45.452C176.238 45.452 175.874 45.606 175.622 45.914C175.37 46.194 175.244 46.6 175.244 47.132V60.656Z" fill="#212121"/>
</svg>
