<svg width="212" height="92" viewBox="0 0 212 92" fill="none" xmlns="http://www.w3.org/2000/svg">
<path fill-rule="evenodd" clip-rule="evenodd" d="M64.2292 23.5456C63.7337 23.2901 63.1714 23.1556 62.5992 23.1557C62.0269 23.1556 61.4647 23.2901 60.969 23.5456L41.643 33.512C41.1474 33.7676 40.7359 34.1351 40.4498 34.5778C40.1637 35.0205 40.0131 35.5226 40.0131 36.0338V55.9664C40.0131 56.4775 40.1637 56.9796 40.4498 57.4223C40.7359 57.8648 41.1474 58.2325 41.643 58.488L60.969 68.4544C61.4646 68.7099 62.0268 68.8445 62.5991 68.8445C63.1714 68.8445 63.7335 68.7099 64.2292 68.4544L83.5552 58.488C84.0509 58.2325 84.4623 57.8648 84.7483 57.4223C85.0344 56.9796 85.1852 56.4775 85.1852 55.9664V36.0338C85.1852 35.5226 85.0344 35.0205 84.7483 34.5778C84.4623 34.1351 84.0509 33.7676 83.5552 33.512L64.2292 23.5456ZM59.7626 21.6789C60.6252 21.2345 61.6034 21.0003 62.5992 21H62.6002C63.5961 21.0004 64.5744 21.2345 65.4369 21.6789L84.7629 31.6453C85.6242 32.0911 86.3395 32.7311 86.8375 33.5012C87.3352 34.2713 87.5981 35.1445 87.5996 36.0338V55.9664C87.5979 56.8557 87.3349 57.7291 86.837 58.4993C86.339 59.2692 85.6235 59.9093 84.7619 60.3549L65.4359 70.3213C64.5734 70.766 63.5951 71 62.5992 71C61.6034 71 60.6251 70.766 59.7626 70.3213L40.4365 60.3549C39.5751 59.9091 38.8598 59.2692 38.3619 58.499C37.8641 57.7291 37.6012 56.8557 37.5996 55.9664V36.0338C37.6012 35.1445 37.864 34.2713 38.3618 33.5011C38.8596 32.731 39.5749 32.0911 40.4363 31.6453L59.7626 21.6789ZM49.4719 44.4917C49.7658 44.491 50.057 44.5422 50.3285 44.6429C50.6 44.7434 50.8465 44.891 51.0537 45.0771L54.048 47.7515L60.1956 42.2604C60.8332 41.6918 61.6974 41.3725 62.5985 41.3725C63.4995 41.3725 64.3638 41.6918 65.0013 42.2604L73.5493 49.8955L76.1913 47.5358C76.6112 47.1616 77.1798 46.9514 77.7731 46.9514C78.3662 46.9514 78.9351 47.1616 79.3548 47.5358L82.8154 50.6293V37.0793C82.8154 36.6217 82.6806 36.1723 82.4242 35.776C82.168 35.3798 81.7997 35.0508 81.3561 34.822L64.0575 25.9011C63.6139 25.6723 63.1105 25.5519 62.5982 25.5519C62.0859 25.5519 61.5826 25.6723 61.1388 25.9011L43.84 34.822C43.3964 35.0508 43.028 35.3798 42.7719 35.776C42.5157 36.1723 42.3808 36.6217 42.3807 37.0793V49.9969L47.889 45.0769C48.0964 44.8906 48.3431 44.7429 48.6148 44.6427C48.8865 44.5422 49.1778 44.4908 49.4719 44.4917ZM42.3807 52.946V54.9219C42.3809 55.3415 42.4945 55.7548 42.712 56.1267C42.9295 56.4989 43.2443 56.8182 43.6297 57.0583L52.3976 49.2265L49.9668 47.0553C49.9017 46.9973 49.8245 46.9512 49.7396 46.9198C49.6546 46.8883 49.5636 46.8721 49.4716 46.8721C49.3796 46.8721 49.2886 46.8883 49.2036 46.9198C49.1187 46.9512 49.0415 46.9973 48.9764 47.0553L42.3807 52.946ZM81.5671 57.058L75.2013 51.371L77.2774 49.5155C77.4087 49.3982 77.5869 49.3323 77.7728 49.3323C77.9585 49.3323 78.1366 49.3982 78.268 49.5155L82.8159 53.5777V54.9216C82.8156 55.3412 82.7021 55.7545 82.4847 56.1265C82.2673 56.4984 81.9526 56.818 81.5671 57.058ZM73.5513 52.8448L71.901 51.371L63.353 43.7361C63.1535 43.5581 62.8832 43.4583 62.6013 43.4583C62.3194 43.4583 62.0491 43.5581 61.8496 43.7361L55.702 49.2272L54.0514 50.7015L45.7173 58.1446L61.1411 66.0991C61.5848 66.3279 62.0881 66.4483 62.6004 66.4483C63.1127 66.4483 63.6162 66.3279 64.0598 66.0991L79.4836 58.1446L73.5513 52.8448Z" fill="#3B82F6"/>
<path d="M119.492 34.448C120.052 35.036 120.332 35.736 120.332 36.548V47.804C120.332 48.616 120.052 49.316 119.492 49.904L118.148 51.248C117.588 51.808 116.902 52.088 116.09 52.088H109.202C108.082 52.088 107.522 52.648 107.522 53.768V60.74C107.522 61.86 106.962 62.42 105.842 62.42H105.38C104.26 62.42 103.7 61.86 103.7 60.74V33.944C103.7 32.824 104.26 32.264 105.38 32.264H116.09C116.902 32.264 117.588 32.544 118.148 33.104L119.492 34.448ZM116.552 37.766C116.552 36.646 115.992 36.086 114.872 36.086H109.244C108.124 36.086 107.564 36.646 107.564 37.766V46.586C107.564 47.706 108.124 48.266 109.244 48.266H114.83C115.95 48.266 116.51 47.706 116.51 46.586L116.552 37.766ZM137.775 52.886C137.775 54.006 137.215 54.566 136.095 54.566H129.627C128.507 54.566 127.947 55.126 127.947 56.246V56.834C127.947 57.954 128.507 58.514 129.627 58.514H136.095C137.215 58.514 137.775 59.074 137.775 60.194V60.656C137.775 61.776 137.215 62.336 136.095 62.336H128.367C127.555 62.336 126.869 62.042 126.309 61.454L124.965 60.11C124.405 59.55 124.125 58.864 124.125 58.052V45.872C124.125 45.06 124.405 44.374 124.965 43.814L126.309 42.47C126.869 41.91 127.555 41.63 128.367 41.63H133.533C134.345 41.63 135.031 41.91 135.591 42.47L136.935 43.814C137.495 44.374 137.775 45.06 137.775 45.872V52.886ZM127.947 49.526C127.947 50.646 128.507 51.206 129.627 51.206H132.273C133.393 51.206 133.953 50.646 133.953 49.526V47.09C133.953 45.97 133.393 45.41 132.273 45.41H129.627C128.507 45.41 127.947 45.97 127.947 47.09V49.526ZM146.251 62.336C145.439 62.336 144.753 62.056 144.193 61.496L142.807 60.11C142.247 59.55 141.967 58.864 141.967 58.052V53.18C141.967 52.76 142.037 52.396 142.177 52.088C142.317 51.752 142.541 51.43 142.849 51.122L144.193 49.778C144.753 49.218 145.439 48.938 146.251 48.938H150.241C151.361 48.938 151.921 48.378 151.921 47.258V47.132C151.921 46.012 151.361 45.452 150.241 45.452H143.773C142.653 45.452 142.093 44.892 142.093 43.772V43.31C142.093 42.19 142.653 41.63 143.773 41.63H151.459C152.271 41.63 152.957 41.91 153.517 42.47L154.903 43.856C155.463 44.416 155.743 45.102 155.743 45.914V60.656C155.743 61.776 155.183 62.336 154.063 62.336H146.251ZM151.921 54.062C151.921 52.942 151.361 52.382 150.241 52.382H147.469C146.349 52.382 145.789 52.942 145.789 54.062V57.212C145.789 58.332 146.349 58.892 147.469 58.892H150.241C151.361 58.892 151.921 58.332 151.921 57.212V54.062ZM166.221 56.582C165.885 55.966 165.507 55.658 165.087 55.658C164.835 55.658 164.625 55.784 164.457 56.036C164.289 56.288 164.205 56.652 164.205 57.128V60.698C164.205 61.818 163.645 62.378 162.525 62.378H162.063C160.943 62.378 160.383 61.818 160.383 60.698V33.482C160.383 32.362 160.943 31.802 162.063 31.802H162.525C163.645 31.802 164.205 32.362 164.205 33.482V45.326C164.205 45.774 164.275 46.124 164.415 46.376C164.583 46.628 164.793 46.754 165.045 46.754C165.437 46.754 165.843 46.488 166.263 45.956L168.783 42.722C169.343 41.994 170.015 41.63 170.799 41.63H171.429C171.877 41.63 172.227 41.728 172.479 41.924C172.731 42.12 172.857 42.372 172.857 42.68C172.857 42.96 172.745 43.282 172.521 43.646L168.447 49.694C168.195 50.058 168.069 50.45 168.069 50.87C168.069 51.262 168.167 51.64 168.363 52.004L172.857 60.362C173.025 60.698 173.109 61.006 173.109 61.286C173.109 61.622 172.983 61.888 172.731 62.084C172.479 62.28 172.143 62.378 171.723 62.378H170.841C169.917 62.378 169.245 61.986 168.825 61.202L166.221 56.582Z" fill="#212121"/>
</svg>
